<svg width="37" height="37" viewBox="0 0 37 37" fill="none" xmlns="http://www.w3.org/2000/svg">
<path d="M18.5 37C28.7173 37 37 28.7173 37 18.5C37 8.28273 28.7173 0 18.5 0C8.28273 0 0 8.28273 0 18.5C0 28.7173 8.28273 37 18.5 37Z" fill="#73879C"/>
<path fill-rule="evenodd" clip-rule="evenodd" d="M17.8012 26.6139H19.2533C19.2533 26.6139 19.6919 26.5657 19.9158 26.3243C20.1219 26.1027 20.1153 25.6865 20.1153 25.6865C20.1153 25.6865 20.0869 23.7382 20.9912 23.4513C21.8826 23.1687 23.0273 25.3343 24.2405 26.167C25.158 26.7972 25.8551 26.6591 25.8551 26.6591L29.0992 26.6139C29.0992 26.6139 30.7962 26.5093 29.9916 25.175C29.9256 25.0659 29.5229 24.188 27.5795 22.3841C25.5455 20.4961 25.8179 20.8015 28.2681 17.5357C29.7604 15.5468 30.357 14.3325 30.1706 13.8125C29.9929 13.3171 28.8954 13.4481 28.8954 13.4481L25.2427 13.4708C25.2427 13.4708 24.972 13.4339 24.7711 13.5539C24.5749 13.6717 24.4486 13.946 24.4486 13.946C24.4486 13.946 23.8705 15.4851 23.0995 16.794C21.473 19.5559 20.8227 19.7017 20.5569 19.5302C19.9385 19.1305 20.0929 17.9245 20.0929 17.0677C20.0929 14.3912 20.4988 13.2753 19.3024 12.9864C18.9053 12.8904 18.6132 12.8271 17.5978 12.8169C16.2945 12.8033 15.1914 12.8208 14.5668 13.1269C14.1512 13.3303 13.8307 13.7838 14.0259 13.8098C14.2673 13.8422 14.8141 13.9572 15.104 14.352C15.4783 14.8612 15.4651 16.0049 15.4651 16.0049C15.4651 16.0049 15.6801 19.1556 14.9628 19.547C14.4705 19.8155 13.7951 19.2674 12.345 16.7617C11.602 15.4782 11.0411 14.0595 11.0411 14.0595C11.0411 14.0595 10.9329 13.7943 10.74 13.6525C10.5058 13.4807 10.1787 13.426 10.1787 13.426L6.70776 13.4487C6.70776 13.4487 6.18671 13.4632 5.99544 13.6898C5.82527 13.8913 5.98192 14.3081 5.98192 14.3081C5.98192 14.3081 8.69931 20.6656 11.7762 23.8694C14.5974 26.8068 17.8012 26.6139 17.8012 26.6139Z" fill="white"/>
</svg>
